Coordinates
version=1
nRows=17
nColumns=38
inDegrees=no

Units are S.I. units (second, meters, Newtons, ...)
If the header above contains a line with 'inDegrees', this indicates whether rotational values are in degrees (yes) or radians (no).

endheader
time	pelvis_tilt	pelvis_list	pelvis_rotation	pelvis_tx	pelvis_ty	pelvis_tz	hip_flexion_r	hip_adduction_r	hip_rotation_r	knee_angle_r	ankle_angle_r	subtalar_angle_r	mtp_angle_r	hip_flexion_l	hip_adduction_l	hip_rotation_l	knee_angle_l	ankle_angle_l	subtalar_angle_l	mtp_angle_l	lumbar_extension	lumbar_bending	lumbar_rotation	arm_flex_r	arm_add_r	arm_rot_r	elbow_flex_r	pro_sup_r	wrist_flex_r	wrist_dev_r	arm_flex_l	arm_add_l	arm_rot_l	elbow_flex_l	pro_sup_l	wrist_flex_l	wrist_dev_l
0.98	0.314226	1.40059	1.3852	0.625819	0.854188	1.01541	0.496514	-0.0127313	-0.211366	0.0854243	-0.323798	0	0	-0.15467	-0.093882	-0.231331	0.306689	-0.140224	0	0	0.0141553	0.0839813	-0.26312	0.00147773	-0.16725	0.334324	0.183851	1.5554	0	0	-0.0591425	-0.373529	0.130323	1.11284	1.36966	0	0
0.99	0.360461	1.40106	1.3403	0.62641	0.869663	1.01534	0.500314	-0.00341703	-0.217231	0.118393	-0.337225	0	0	-0.153277	-0.106653	-0.230283	0.341963	-0.153493	0	0	0.0145552	0.0965399	-0.262053	0.00446704	-0.168656	0.333537	0.182282	1.55082	0	0	-0.055921	-0.365216	0.141261	1.09333	1.36907	0	0
1	0.402778	1.39914	1.2975	0.627131	0.885059	1.01551	0.505999	0.0059022	-0.221476	0.155435	-0.326767	0	0	-0.146835	-0.118787	-0.226418	0.382314	-0.17094	0	0	0.0172755	0.108738	-0.259146	0.00728069	-0.170282	0.333355	0.181598	1.54567	0	0	-0.0534983	-0.356111	0.152299	1.07187	1.3665	0	0
1.01	0.441702	1.39451	1.25662	0.627987	0.900297	1.01589	0.51234	0.015811	-0.216397	0.193681	-0.301284	0	0	-0.134312	-0.130749	-0.219533	0.428914	-0.192383	0	0	0.0222969	0.120943	-0.255519	0.0106394	-0.172143	0.335648	0.181576	1.54176	0	0	-0.0526909	-0.346817	0.162753	1.04951	1.36208	0	0
1.02	0.474641	1.38788	1.22048	0.628951	0.915249	1.01648	0.518948	0.0265084	-0.19787	0.231781	-0.268035	0	0	-0.115775	-0.141858	-0.208431	0.481336	-0.219297	0	0	0.0286393	0.132656	-0.251594	0.0149967	-0.17383	0.340474	0.182254	1.53765	0	0	-0.0533786	-0.337849	0.172572	1.02701	1.35574	0	0
1.03	0.502371	1.38059	1.18987	0.629946	0.929804	1.0172	0.524827	0.0376652	-0.171831	0.268034	-0.236493	0	0	-0.0925189	-0.151914	-0.190475	0.537993	-0.248147	0	0	0.0343465	0.143365	-0.249643	0.0215006	-0.174771	0.348036	0.18335	1.53458	0	0	-0.0562714	-0.329762	0.179732	1.00653	1.34801	0	0
1.04	0.525025	1.37385	1.16641	0.630904	0.944023	1.01788	0.529216	0.0476997	-0.150664	0.301484	-0.207591	0	0	-0.0663997	-0.160825	-0.165815	0.596657	-0.278005	0	0	0.0390216	0.151883	-0.251092	0.0297573	-0.174758	0.359532	0.185019	1.53394	0	0	-0.0614849	-0.323543	0.184801	0.989206	1.33736	0	0
1.05	0.549953	1.37057	1.14416	0.631748	0.957953	1.01859	0.527967	0.0552709	-0.143916	0.329272	-0.176631	0	0	-0.0411692	-0.169055	-0.137432	0.656044	-0.31199	0	0	0.0882418	0.147527	-0.172358	-0.0265378	-0.178218	0.323883	0.189084	1.49294	0	0	0.0262923	-0.32076	0.366681	0.87497	1.25961	0	0
1.06	0.576313	1.36844	1.12468	0.632388	0.971784	1.01927	0.521636	0.0602597	-0.151745	0.348012	-0.159779	0	0	-0.0144132	-0.176764	-0.104715	0.716465	-0.339517	0	0	0.08868	0.15194	-0.180078	-0.0175506	-0.177396	0.336052	0.193016	1.49899	0	0	0.0207259	-0.320113	0.377419	0.862241	1.23638	0	0
1.07	0.603983	1.36811	1.10709	0.632776	0.985412	1.01996	0.50967	0.0629816	-0.166993	0.359434	-0.141298	0	0	0.0128476	-0.183177	-0.0702133	0.776652	-0.371886	0	0	0.0869969	0.154667	-0.189829	-0.00862507	-0.176169	0.346883	0.198962	1.50451	0	0	0.0155439	-0.320645	0.388532	0.850857	1.21179	0	0
1.08	0.624844	1.36819	1.09804	0.632904	0.99875	1.02062	0.49562	0.0637691	-0.184323	0.366102	-0.123576	0	0	0.042116	-0.186612	-0.035314	0.835157	-0.40593	0	0	0.0852655	0.155399	-0.199694	-0.000456241	-0.174962	0.354355	0.20717	1.50821	0	0	0.0117445	-0.321418	0.401287	0.839032	1.18638	0	0
1.09	0.643325	1.36846	1.09185	0.632976	1.01187	1.02145	0.479487	0.0651272	-0.197271	0.366367	-0.10854	0	0	0.071964	-0.188324	-0.0016697	0.89036	-0.4354	0	0	0.0833342	0.155322	-0.208049	0.00682724	-0.174283	0.35931	0.217601	1.51197	0	0	0.010213	-0.32205	0.416963	0.825244	1.16171	0	0
1.1	0.657085	1.36895	1.08987	0.633011	1.02477	1.02258	0.462809	0.0665405	-0.20723	0.363037	-0.0975174	0	0	0.101823	-0.188211	0.0284536	0.941597	-0.44872	0	0	0.0811825	0.154398	-0.214307	0.0137178	-0.174162	0.361456	0.229547	1.51586	0	0	0.0101838	-0.321423	0.432303	0.808964	1.14184	0	0
1.11	0.665647	1.36946	1.0916	0.633105	1.0375	1.02407	0.446772	0.0677243	-0.217377	0.359769	-0.0878468	0	0	0.131155	-0.186535	0.0538509	0.987738	-0.443953	0	0	0.0789946	0.152765	-0.218054	0.0202069	-0.174307	0.360027	0.242885	1.51953	0	0	0.0116233	-0.32035	0.449254	0.790463	1.12389	0	0
1.12	0.668726	1.37013	1.09604	0.633346	1.05013	1.02592	0.431121	0.0689135	-0.226825	0.356311	-0.0803226	0	0	0.159067	-0.183522	0.0729827	1.02855	-0.423084	0	0	0.0767048	0.150368	-0.218618	0.0262366	-0.174691	0.355424	0.257338	1.52333	0	0	0.0134923	-0.3189	0.466153	0.770685	1.1101	0	0
1.13	0.670276	1.37237	1.09893	0.633759	1.06276	1.02817	0.41311	0.070652	-0.231278	0.350489	-0.0752854	0	0	0.183495	-0.179788	0.0850725	1.06422	-0.391166	0	0	0.0728283	0.146981	-0.215699	0.0317398	-0.175167	0.348043	0.273082	1.52746	0	0	0.0151227	-0.3176	0.482287	0.750961	1.10176	0	0
1.14	0.672514	1.37716	1.09779	0.634386	1.07538	1.03084	0.3915	0.0729829	-0.228124	0.341864	-0.0725471	0	0	0.203429	-0.175837	0.0895011	1.09474	-0.35362	0	0	0.0661267	0.142363	-0.208995	0.0369196	-0.175603	0.338132	0.290133	1.53161	0	0	0.0163564	-0.316719	0.496967	0.732085	1.09854	0	0
